<svg id="Laag_1" data-name="Laag 1" xmlns="http://www.w3.org/2000/svg" viewBox="0 0 406 59.16"><defs><style>.cls-1{fill:#343a63;}.cls-2{fill:#c91338;}.cls-3{fill:#99c344;}</style></defs><title>logo</title><path class="cls-1" d="M44.88,90.24V44.64h10v45.6Z" transform="translate(-44.88 -31.85)"/><path class="cls-1" d="M101.61,56.49V90.24h-10V59.5A7.46,7.46,0,0,0,90,54.3,6.33,6.33,0,0,0,85,52.46a16.52,16.52,0,0,0-5.8.94,38.14,38.14,0,0,0-6.4,3.35V90.24h-10V44.64h7.73l2.23,5.15a15.28,15.28,0,0,1,1.42-1l1.5-1q.26-.17,1.37-.82t1.55-.86l1.46-.69a7.8,7.8,0,0,1,1.72-.6q.69-.13,1.72-.39A21.72,21.72,0,0,1,88.64,44a14.3,14.3,0,0,1,6.61,1.63,10.22,10.22,0,0,1,4.64,4.55A27.65,27.65,0,0,1,117,44q6.78,0,10.3,4.25t3.52,11.29V90.24h-10V59.5a7.59,7.59,0,0,0-1.63-5.2,5.61,5.61,0,0,0-4.42-1.85,25.36,25.36,0,0,0-4.94.43A18.27,18.27,0,0,0,101.61,56.49Z" transform="translate(-44.88 -31.85)"/><path class="cls-1" d="M177.15,56.49V90.24h-10V59.5a7.46,7.46,0,0,0-1.67-5.2,6.33,6.33,0,0,0-4.94-1.85,16.52,16.52,0,0,0-5.8.94,38.14,38.14,0,0,0-6.4,3.35V90.24h-10V44.64h7.73l2.23,5.15a15.28,15.28,0,0,1,1.42-1l1.5-1q.26-.17,1.37-.82t1.55-.86l1.46-.69a7.8,7.8,0,0,1,1.72-.6q.69-.13,1.72-.39a21.72,21.72,0,0,1,5.07-.43,14.3,14.3,0,0,1,6.61,1.63,10.22,10.22,0,0,1,4.64,4.55A27.65,27.65,0,0,1,192.52,44q6.78,0,10.3,4.25t3.52,11.29V90.24h-10V59.5a7.59,7.59,0,0,0-1.63-5.2,5.61,5.61,0,0,0-4.42-1.85,25.36,25.36,0,0,0-4.94.43A18.27,18.27,0,0,0,177.15,56.49Z" transform="translate(-44.88 -31.85)"/><path class="cls-1" d="M213.39,75.47V44.64h10v31q0,3.52,1.63,5.2a6.67,6.67,0,0,0,5,1.67,17.87,17.87,0,0,0,6-.94,35.45,35.45,0,0,0,6.53-3.35V44.64h10v45.6h-7.73l-2.23-5q-.69.34-2.23,1.33T237.95,88q-.77.43-2.23,1.12a19.75,19.75,0,0,1-2.58,1,20.93,20.93,0,0,1-5.93.86q-7.13,0-10.48-4.34T213.39,75.47Z" transform="translate(-44.88 -31.85)"/><path class="cls-1" d="M289.57,59.24q0-7-6-7a19.17,19.17,0,0,0-6.61,1,41.09,41.09,0,0,0-6.53,3.31V90.24h-10V44.64h7.73l2.23,5.07,1.85-1.24q1.59-1.07,3.18-2a22.41,22.41,0,0,1,4.42-1.76,20,20,0,0,1,5.84-.86q7.13,0,10.48,4.34t3.35,11.12V90.24h-10Z" transform="translate(-44.88 -31.85)"/><path class="cls-1" d="M309.55,49.88A12.13,12.13,0,0,1,316,45.33a33.87,33.87,0,0,1,8.72-1q4.85,0,7.13.17a29.08,29.08,0,0,1,4.59.73,9.24,9.24,0,0,1,3.69,1.67,11.56,11.56,0,0,1,2.49,2.92q2.15,3.26,2.15,10.91,0,11.08-12.37,11.08H316.16q0,6.7,2.23,8.67a5.83,5.83,0,0,0,2.79,1.46,66,66,0,0,0,9.15.34,87.85,87.85,0,0,0,13.57-.94v7q-7,2.41-22.67,2.4-8.59,0-11.81-5.2T306.2,67.35Q306.2,54.43,309.55,49.88ZM334.8,60.36q0-5.15-1.42-6.53t-6.74-1.37q-6.78,0-8.16,1.55a7.79,7.79,0,0,0-2.06,4.59q-.26,2.62-.26,5.45h14.25Q334.8,64,334.8,60.36Z" transform="translate(-44.88 -31.85)"/><path class="cls-1" d="M402.73,90.24V44.64h14.08v45.6Z" transform="translate(-44.88 -31.85)"/><path class="cls-1" d="M420.74,54.77V47.39l7-2.83,2.23-12.71h11.85V44.56h9.1V54.77h-9.1V71.35q0,4.47.86,6.18a5.48,5.48,0,0,0,2.75,2.58,34.32,34.32,0,0,0,5,1.72v8.42H438.86a11.21,11.21,0,0,1-5.93-1.46q-5.24-3.35-5.24-14.86V54.77Z" transform="translate(-44.88 -31.85)"/><rect class="cls-2" x="310.56" y="29.2" width="14.36" height="11.96" rx="1.35" ry="1.35"/><rect class="cls-3" x="332.09" y="29.2" width="14.36" height="11.96" rx="1.35" ry="1.35"/></svg>